<mxfile host="app.diagrams.net" modified="2021-02-18T15:31:30.080Z" agent="5.0 (X11)" etag="w4lTv9cSH0tVtbqC0ESb" version="14.4.2" type="github">
  <diagram id="83nxDZoCT0txb4SYK3vy" name="Page-1">
    <mxGraphModel dx="1350" dy="804" grid="1" gridSize="10" guides="1" tooltips="1" connect="1" arrows="1" fold="1" page="1" pageScale="1" pageWidth="827" pageHeight="1169" math="0" shadow="0">
      <root>
        <mxCell id="0" />
        <mxCell id="1" parent="0" />
        <mxCell id="5u_AhWhO7NYXTwfLk4Y--1" value="" style="rounded=0;whiteSpace=wrap;html=1;fontFamily=Helvetica;" vertex="1" parent="1">
          <mxGeometry x="30" y="40" width="760" height="240" as="geometry" />
        </mxCell>
        <mxCell id="5u_AhWhO7NYXTwfLk4Y--2" value="Header" style="text;html=1;strokeColor=none;fillColor=none;align=center;verticalAlign=middle;whiteSpace=wrap;rounded=0;fontFamily=Helvetica;" vertex="1" parent="1">
          <mxGeometry x="394" y="50" width="40" height="20" as="geometry" />
        </mxCell>
        <mxCell id="5u_AhWhO7NYXTwfLk4Y--4" value="" style="rounded=0;whiteSpace=wrap;html=1;fontFamily=Helvetica;" vertex="1" parent="1">
          <mxGeometry x="140" y="70" width="620" height="60" as="geometry" />
        </mxCell>
        <mxCell id="5u_AhWhO7NYXTwfLk4Y--5" value="" style="ellipse;whiteSpace=wrap;html=1;aspect=fixed;fontFamily=Helvetica;" vertex="1" parent="1">
          <mxGeometry x="40" y="60" width="80" height="80" as="geometry" />
        </mxCell>
        <mxCell id="5u_AhWhO7NYXTwfLk4Y--6" value="figure" style="text;html=1;strokeColor=none;fillColor=none;align=center;verticalAlign=middle;whiteSpace=wrap;rounded=0;fontFamily=Helvetica;" vertex="1" parent="1">
          <mxGeometry x="60" y="80" width="40" height="20" as="geometry" />
        </mxCell>
        <mxCell id="5u_AhWhO7NYXTwfLk4Y--7" value="" style="rounded=0;whiteSpace=wrap;html=1;fontFamily=Helvetica;" vertex="1" parent="1">
          <mxGeometry x="160" y="90" width="70" height="30" as="geometry" />
        </mxCell>
        <mxCell id="5u_AhWhO7NYXTwfLk4Y--8" value="&lt;div&gt;Nav&lt;/div&gt;" style="text;html=1;strokeColor=none;fillColor=none;align=center;verticalAlign=middle;whiteSpace=wrap;rounded=0;fontFamily=Helvetica;" vertex="1" parent="1">
          <mxGeometry x="390" y="80" width="40" height="20" as="geometry" />
        </mxCell>
        <mxCell id="5u_AhWhO7NYXTwfLk4Y--10" value="" style="ellipse;whiteSpace=wrap;html=1;fontFamily=Helvetica;" vertex="1" parent="1">
          <mxGeometry x="60" y="140" width="700" height="100" as="geometry" />
        </mxCell>
        <mxCell id="5u_AhWhO7NYXTwfLk4Y--11" value="img pour la banner" style="text;html=1;strokeColor=none;fillColor=none;align=center;verticalAlign=middle;whiteSpace=wrap;rounded=0;fontFamily=Helvetica;" vertex="1" parent="1">
          <mxGeometry x="340" y="160" width="120" height="60" as="geometry" />
        </mxCell>
        <mxCell id="5u_AhWhO7NYXTwfLk4Y--12" value="" style="rounded=0;whiteSpace=wrap;html=1;fontFamily=Helvetica;" vertex="1" parent="1">
          <mxGeometry x="720" y="240" width="70" height="40" as="geometry" />
        </mxCell>
        <mxCell id="5u_AhWhO7NYXTwfLk4Y--14" value="" style="rounded=0;whiteSpace=wrap;html=1;fontFamily=Helvetica;" vertex="1" parent="1">
          <mxGeometry x="30" y="240" width="690" height="40" as="geometry" />
        </mxCell>
        <mxCell id="5u_AhWhO7NYXTwfLk4Y--15" value="figcaption" style="text;html=1;strokeColor=none;fillColor=none;align=center;verticalAlign=middle;whiteSpace=wrap;rounded=0;fontFamily=Helvetica;" vertex="1" parent="1">
          <mxGeometry x="220" y="250" width="260" height="20" as="geometry" />
        </mxCell>
        <mxCell id="5u_AhWhO7NYXTwfLk4Y--16" value="a ou button" style="text;html=1;strokeColor=none;fillColor=none;align=center;verticalAlign=middle;whiteSpace=wrap;rounded=0;fontFamily=Helvetica;" vertex="1" parent="1">
          <mxGeometry x="720" y="240" width="70" height="40" as="geometry" />
        </mxCell>
        <mxCell id="5u_AhWhO7NYXTwfLk4Y--22" value="" style="rounded=0;whiteSpace=wrap;html=1;fontFamily=Helvetica;" vertex="1" parent="1">
          <mxGeometry x="30" y="300" width="760" height="580" as="geometry" />
        </mxCell>
        <mxCell id="5u_AhWhO7NYXTwfLk4Y--23" value="" style="shape=cylinder3;whiteSpace=wrap;html=1;boundedLbl=1;backgroundOutline=1;size=15;fontFamily=Helvetica;" vertex="1" parent="1">
          <mxGeometry x="530" y="315" width="250" height="540" as="geometry" />
        </mxCell>
        <mxCell id="5u_AhWhO7NYXTwfLk4Y--24" value="" style="rounded=0;whiteSpace=wrap;html=1;fontFamily=Helvetica;" vertex="1" parent="1">
          <mxGeometry x="40" y="390" width="470" height="450" as="geometry" />
        </mxCell>
        <mxCell id="5u_AhWhO7NYXTwfLk4Y--25" value="" style="rounded=0;whiteSpace=wrap;html=1;fontFamily=Helvetica;" vertex="1" parent="1">
          <mxGeometry x="40" y="310" width="470" height="60" as="geometry" />
        </mxCell>
        <mxCell id="5u_AhWhO7NYXTwfLk4Y--27" value="h2" style="text;html=1;strokeColor=none;fillColor=none;align=center;verticalAlign=middle;whiteSpace=wrap;rounded=0;fontFamily=Helvetica;" vertex="1" parent="1">
          <mxGeometry x="110" y="330" width="210" height="20" as="geometry" />
        </mxCell>
        <mxCell id="5u_AhWhO7NYXTwfLk4Y--28" value="" style="ellipse;whiteSpace=wrap;html=1;aspect=fixed;fontFamily=Helvetica;" vertex="1" parent="1">
          <mxGeometry x="50" y="320" width="40" height="40" as="geometry" />
        </mxCell>
        <mxCell id="5u_AhWhO7NYXTwfLk4Y--29" value="img" style="text;html=1;strokeColor=none;fillColor=none;align=center;verticalAlign=middle;whiteSpace=wrap;rounded=0;fontFamily=Helvetica;" vertex="1" parent="1">
          <mxGeometry x="50" y="330" width="40" height="20" as="geometry" />
        </mxCell>
        <mxCell id="5u_AhWhO7NYXTwfLk4Y--30" value="" style="rounded=0;whiteSpace=wrap;html=1;fontFamily=Helvetica;" vertex="1" parent="1">
          <mxGeometry x="50" y="420" width="450" height="110" as="geometry" />
        </mxCell>
        <mxCell id="5u_AhWhO7NYXTwfLk4Y--31" value="article" style="text;html=1;strokeColor=none;fillColor=none;align=center;verticalAlign=middle;whiteSpace=wrap;rounded=0;fontFamily=Helvetica;" vertex="1" parent="1">
          <mxGeometry x="360" y="400" width="140" height="20" as="geometry" />
        </mxCell>
        <mxCell id="5u_AhWhO7NYXTwfLk4Y--33" value="" style="rounded=0;whiteSpace=wrap;html=1;fontFamily=Helvetica;" vertex="1" parent="1">
          <mxGeometry x="50" y="560" width="450" height="120" as="geometry" />
        </mxCell>
        <mxCell id="5u_AhWhO7NYXTwfLk4Y--34" value="" style="rounded=0;whiteSpace=wrap;html=1;fontFamily=Helvetica;" vertex="1" parent="1">
          <mxGeometry x="50" y="710" width="450" height="120" as="geometry" />
        </mxCell>
        <mxCell id="5u_AhWhO7NYXTwfLk4Y--35" value="p" style="text;html=1;strokeColor=none;fillColor=none;align=center;verticalAlign=middle;whiteSpace=wrap;rounded=0;fontFamily=Helvetica;" vertex="1" parent="1">
          <mxGeometry x="255" y="450" width="40" height="20" as="geometry" />
        </mxCell>
        <mxCell id="5u_AhWhO7NYXTwfLk4Y--36" value="p" style="text;html=1;strokeColor=none;fillColor=none;align=center;verticalAlign=middle;whiteSpace=wrap;rounded=0;fontFamily=Helvetica;" vertex="1" parent="1">
          <mxGeometry x="240" y="575" width="40" height="20" as="geometry" />
        </mxCell>
        <mxCell id="5u_AhWhO7NYXTwfLk4Y--37" value="p" style="text;html=1;strokeColor=none;fillColor=none;align=center;verticalAlign=middle;whiteSpace=wrap;rounded=0;fontFamily=Helvetica;" vertex="1" parent="1">
          <mxGeometry x="240" y="730" width="40" height="20" as="geometry" />
        </mxCell>
        <mxCell id="5u_AhWhO7NYXTwfLk4Y--38" value="aside" style="text;html=1;strokeColor=none;fillColor=none;align=center;verticalAlign=middle;whiteSpace=wrap;rounded=0;fontFamily=Helvetica;" vertex="1" parent="1">
          <mxGeometry x="635" y="320" width="40" height="20" as="geometry" />
        </mxCell>
        <mxCell id="5u_AhWhO7NYXTwfLk4Y--39" value="Text" style="text;html=1;strokeColor=none;fillColor=none;align=center;verticalAlign=middle;whiteSpace=wrap;rounded=0;fontFamily=Helvetica;" vertex="1" parent="1">
          <mxGeometry x="300" y="95" width="40" height="20" as="geometry" />
        </mxCell>
        <mxCell id="5u_AhWhO7NYXTwfLk4Y--40" value="a" style="rounded=0;whiteSpace=wrap;html=1;fontFamily=Helvetica;" vertex="1" parent="1">
          <mxGeometry x="280" y="85" width="75" height="40" as="geometry" />
        </mxCell>
        <mxCell id="5u_AhWhO7NYXTwfLk4Y--41" value="a" style="rounded=0;whiteSpace=wrap;html=1;fontFamily=Helvetica;" vertex="1" parent="1">
          <mxGeometry x="450" y="90" width="80" height="35" as="geometry" />
        </mxCell>
        <mxCell id="5u_AhWhO7NYXTwfLk4Y--42" value="a" style="rounded=0;whiteSpace=wrap;html=1;fontFamily=Helvetica;" vertex="1" parent="1">
          <mxGeometry x="580" y="85" width="85" height="40" as="geometry" />
        </mxCell>
        <mxCell id="5u_AhWhO7NYXTwfLk4Y--43" value="a" style="text;html=1;strokeColor=none;fillColor=none;align=center;verticalAlign=middle;whiteSpace=wrap;rounded=0;fontFamily=Helvetica;" vertex="1" parent="1">
          <mxGeometry x="175" y="95" width="40" height="20" as="geometry" />
        </mxCell>
        <mxCell id="5u_AhWhO7NYXTwfLk4Y--44" value="h3" style="rounded=0;whiteSpace=wrap;html=1;fontFamily=Helvetica;" vertex="1" parent="1">
          <mxGeometry x="595" y="350" width="120" height="30" as="geometry" />
        </mxCell>
        <mxCell id="5u_AhWhO7NYXTwfLk4Y--45" value="img" style="ellipse;whiteSpace=wrap;html=1;aspect=fixed;fontFamily=Helvetica;" vertex="1" parent="1">
          <mxGeometry x="615" y="390" width="80" height="80" as="geometry" />
        </mxCell>
        <mxCell id="5u_AhWhO7NYXTwfLk4Y--46" value="p" style="rounded=0;whiteSpace=wrap;html=1;fontFamily=Helvetica;" vertex="1" parent="1">
          <mxGeometry x="555" y="500" width="205" height="110" as="geometry" />
        </mxCell>
        <mxCell id="5u_AhWhO7NYXTwfLk4Y--47" value="favicon*5" style="rounded=1;whiteSpace=wrap;html=1;fontFamily=Helvetica;" vertex="1" parent="1">
          <mxGeometry x="540" y="770" width="230" height="60" as="geometry" />
        </mxCell>
        <mxCell id="5u_AhWhO7NYXTwfLk4Y--48" value="p" style="rounded=0;whiteSpace=wrap;html=1;fontFamily=Helvetica;" vertex="1" parent="1">
          <mxGeometry x="550" y="620" width="210" height="60" as="geometry" />
        </mxCell>
        <mxCell id="5u_AhWhO7NYXTwfLk4Y--49" value="main" style="text;html=1;strokeColor=none;fillColor=none;align=center;verticalAlign=middle;whiteSpace=wrap;rounded=0;fontFamily=Helvetica;" vertex="1" parent="1">
          <mxGeometry x="520" y="300" width="40" height="20" as="geometry" />
        </mxCell>
        <mxCell id="5u_AhWhO7NYXTwfLk4Y--50" value="p" style="rounded=0;whiteSpace=wrap;html=1;fontFamily=Helvetica;" vertex="1" parent="1">
          <mxGeometry x="550" y="690" width="210" height="60" as="geometry" />
        </mxCell>
        <mxCell id="5u_AhWhO7NYXTwfLk4Y--51" value="" style="rounded=0;whiteSpace=wrap;html=1;fontFamily=Helvetica;" vertex="1" parent="1">
          <mxGeometry x="30" y="900" width="760" height="210" as="geometry" />
        </mxCell>
        <mxCell id="5u_AhWhO7NYXTwfLk4Y--52" value="footer" style="text;html=1;strokeColor=none;fillColor=none;align=center;verticalAlign=middle;whiteSpace=wrap;rounded=0;fontFamily=Helvetica;" vertex="1" parent="1">
          <mxGeometry x="394" y="900" width="40" height="20" as="geometry" />
        </mxCell>
        <mxCell id="5u_AhWhO7NYXTwfLk4Y--53" value="form" style="whiteSpace=wrap;html=1;aspect=fixed;fontFamily=Helvetica;" vertex="1" parent="1">
          <mxGeometry x="40" y="920" width="160" height="160" as="geometry" />
        </mxCell>
        <mxCell id="5u_AhWhO7NYXTwfLk4Y--54" value="div&amp;gt;img*4" style="rounded=0;whiteSpace=wrap;html=1;fontFamily=Helvetica;" vertex="1" parent="1">
          <mxGeometry x="235" y="960" width="285" height="120" as="geometry" />
        </mxCell>
        <mxCell id="5u_AhWhO7NYXTwfLk4Y--55" value="div&amp;gt;img*3" style="rounded=0;whiteSpace=wrap;html=1;fontFamily=Helvetica;" vertex="1" parent="1">
          <mxGeometry x="540" y="960" width="210" height="120" as="geometry" />
        </mxCell>
        <mxCell id="5u_AhWhO7NYXTwfLk4Y--56" value="h4" style="rounded=0;whiteSpace=wrap;html=1;fontFamily=Helvetica;" vertex="1" parent="1">
          <mxGeometry x="55" y="930" width="120" height="30" as="geometry" />
        </mxCell>
        <mxCell id="5u_AhWhO7NYXTwfLk4Y--57" value="h4" style="rounded=0;whiteSpace=wrap;html=1;fontFamily=Helvetica;" vertex="1" parent="1">
          <mxGeometry x="235" y="920" width="120" height="30" as="geometry" />
        </mxCell>
        <mxCell id="5u_AhWhO7NYXTwfLk4Y--58" value="h4" style="rounded=0;whiteSpace=wrap;html=1;fontFamily=Helvetica;" vertex="1" parent="1">
          <mxGeometry x="540" y="920" width="100" height="30" as="geometry" />
        </mxCell>
      </root>
    </mxGraphModel>
  </diagram>
</mxfile>
